<svg xmlns="http://www.w3.org/2000/svg" viewBox="0 0 260.13 224.68"><defs><style>.cls-1{fill:#2b17a3;}.cls-2{fill:#613fef;}</style></defs><g id="Layer_2" data-name="Layer 2"><g id="Layer_1-2" data-name="Layer 1"><path class="cls-1" d="M240,82.37,210.39,98.59a88.59,88.59,0,0,1-67.31,125.16V203.09a68.2,68.2,0,0,0,55-60.55c.2-2.1.3-4.24.3-6.39a68.15,68.15,0,0,0-110-53.77L69.25,71.93a88.53,88.53,0,0,1,131,10.12l19.56-10.72-89.34-49-.07,0-.24.13L54.66,63.93,41,71.44,60.17,82l18.16,10,11.79,6.46,40.07,22,.08,0,0,0,12.78-7,.92-.5,25.85-14.18A54.65,54.65,0,0,1,180.4,115L164.14,124l-13.69,7.51-7.37,4-12.89,7.07-.09.05-20.14-11L79.34,114.78,67.88,108.5,50,98.67,20.62,82.59,0,71.29,20.35,60.13,34,52.63l75.84-41.58L130,0l.16.09L150.65,11.3l89.34,49,20.14,11Z"/><path class="cls-2" d="M130.19,204.3v20.38A88.58,88.58,0,0,1,45.53,110.17L63.9,120.24h0a68.24,68.24,0,0,0,66.29,84.06Z"/></g></g></svg>